<svg width="16" height="16" viewBox="0 0 16 16" fill="none" xmlns="http://www.w3.org/2000/svg">
<path fill-rule="evenodd" clip-rule="evenodd" d="M3.66666 8C3.66666 7.44772 3.21894 7 2.66666 7C2.11438 7 1.66666 7.44772 1.66666 8C1.66666 8.55228 2.11438 9 2.66666 9C3.21894 9 3.66666 8.55228 3.66666 8ZM14.3333 8C14.3333 7.44772 13.8856 7 13.3333 7C12.781 7 12.3333 7.44772 12.3333 8C12.3333 8.55228 12.781 9 13.3333 9C13.8856 9 14.3333 8.55228 14.3333 8ZM9 8C9 7.44772 8.55228 7 8 7C7.44772 7 7 7.44772 7 8C7 8.55228 7.44772 9 8 9C8.55228 9 9 8.55228 9 8Z" fill="#777777"/>
</svg>
